<svg width="1216" height="623" viewBox="0 0 1216 623" fill="none" xmlns="http://www.w3.org/2000/svg">
<path d="M40.21 622.45C62.4174 622.45 80.42 619.406 80.42 615.65C80.42 611.895 62.4174 608.85 40.21 608.85C18.0026 608.85 0 611.895 0 615.65C0 619.406 18.0026 622.45 40.21 622.45Z" fill="#1890FF"/>
<path d="M23.58 604.53C21.7416 603.039 20.402 601.023 19.74 598.75C19.25 596.45 20.23 593.7 22.42 592.86C24.88 591.92 27.51 593.62 29.5 595.34C31.49 597.06 33.78 599.03 36.39 598.67C35.0477 597.453 34.0437 595.908 33.4759 594.187C32.9081 592.466 32.7958 590.627 33.15 588.85C33.2578 588.113 33.5695 587.42 34.05 586.85C35.41 585.39 37.89 586.02 39.53 587.17C44.72 590.83 46.18 597.89 46.2 604.25C46.73 601.95 46.29 599.57 46.3 597.25C46.31 594.93 46.96 592.25 48.94 591.03C50.1631 590.353 51.5422 590.008 52.94 590.03C55.28 589.95 57.88 590.18 59.48 591.89C61.48 594.01 60.95 597.58 59.22 599.89C57.49 602.2 54.87 603.69 52.46 605.31C50.5188 606.461 48.8639 608.037 47.62 609.92C47.4743 610.181 47.3537 610.456 47.26 610.74H32.65C29.3581 609.093 26.3066 607.003 23.58 604.53V604.53Z" fill="#1890FF"/>
<path opacity="0.1" d="M82.483 288C78.0478 328.799 79.5602 370.026 86.973 410.39L1101.85 444.23C1129.82 415.015 1153.55 382.028 1172.36 346.23L82.483 288ZM483.853 375.31H463.853C469.343 375.31 473.853 379.41 473.853 384.42C473.853 389.43 469.353 393.52 463.853 393.52H348.313C342.823 393.52 338.313 389.43 338.313 384.42C338.313 379.41 342.813 375.31 348.313 375.31H368.313C362.823 375.31 358.313 371.21 358.313 366.2C358.313 361.19 362.813 357.09 368.313 357.09H354.023C348.533 357.09 344.023 353 344.023 347.99C344.023 342.98 348.523 338.88 354.023 338.88H469.613C475.113 338.88 479.613 342.98 479.613 347.99C479.613 353 475.123 357.09 469.613 357.09H483.853C489.353 357.09 493.853 361.19 493.853 366.2C493.853 371.21 489.383 375.31 483.853 375.31Z" fill="#1890FF"/>
<path opacity="0.1" d="M1194.43 76.3161H1078.84C1073.34 76.3161 1068.84 72.2161 1068.84 67.2061C1068.84 62.1961 1073.33 58.0961 1078.84 58.0961H1098.84C1093.34 58.0961 1088.84 53.9961 1088.84 48.9861C1088.84 43.9761 1093.33 39.8861 1098.84 39.8861H1084.57C1079.07 39.8861 1074.57 35.7861 1074.57 30.7761C1074.57 25.7661 1079.06 21.6661 1084.57 21.6661H1144.9C1131.51 15.9861 1115.9 11.9561 1097.84 9.84613C933.33 -9.42387 874.59 3.31613 853.84 16.4261C828.047 32.9353 799.357 44.4014 769.29 50.2161C667.79 69.3061 477.97 92.2761 305.92 42.8561C220.41 18.3061 156.86 59.8561 118.76 129.166H1214.5C1213.07 109.006 1208.79 90.3861 1200.93 74.0961C1199.07 75.5453 1196.78 76.3273 1194.43 76.3161V76.3161Z" fill="#1890FF"/>
<path opacity="0.1" d="M1214.55 129.796L106.55 154.366C93.05 185.956 84.12 221.666 80 258.686H1195.13C1202.39 237.025 1207.78 214.78 1211.23 192.196C1214.55 170.436 1215.88 149.396 1214.55 129.796ZM304.97 210.306H284.97C290.46 210.306 294.97 214.406 294.97 219.416C294.97 224.426 290.47 228.526 284.97 228.526H169.39C163.9 228.526 159.39 224.426 159.39 219.416C159.39 214.406 163.89 210.306 169.39 210.306H189.39C183.9 210.306 179.39 206.216 179.39 201.206C179.39 196.196 183.89 192.096 189.39 192.096H175.1C169.61 192.096 165.1 187.996 165.1 182.986C165.1 177.976 169.6 173.876 175.1 173.876H290.69C296.19 173.876 300.69 177.976 300.69 182.986C300.69 187.996 296.2 192.096 290.69 192.096H304.97C310.46 192.096 314.97 196.196 314.97 201.206C314.97 206.216 310.46 210.306 304.97 210.306Z" fill="#1890FF"/>
</svg>
