<svg width="276" height="640" viewBox="0 0 276 640" fill="none" xmlns="http://www.w3.org/2000/svg">
<path d="M137.764 639.949C213.849 639.949 275.528 630.995 275.528 619.949C275.528 608.903 213.849 599.949 137.764 599.949C61.6789 599.949 0 608.903 0 619.949C0 630.995 61.6789 639.949 137.764 639.949Z" fill="#E6E6E6"/>
<path d="M113.62 66.449L112.62 91.449L144.62 113.449L149.62 66.449H113.62Z" fill="#FFB9B9"/>
<path d="M188.62 194.449L199.62 226.449L221.62 302.449C221.62 302.449 243.62 339.449 224.62 340.449C205.62 341.449 209.62 307.449 209.62 307.449L178.62 253.449L171.62 196.449L188.62 194.449Z" fill="#FFB9B9"/>
<path d="M178.354 566.11C178.354 566.11 185.654 586.028 193.097 595.651C200.54 605.274 189.089 611.429 189.089 611.429L152.722 607.135C152.722 607.135 154.913 575.304 152.073 570.019L178.354 566.11Z" fill="#FFB9B9"/>
<path d="M186.997 601.2C186.997 601.2 192.833 586.711 196.147 592.877C199.461 599.042 212.662 606.706 212.662 606.706C212.662 606.706 247.741 612.827 221.657 623.441C195.574 634.055 179.191 624.696 179.191 624.696C179.191 624.696 154.605 625.423 151.764 620.138C148.923 614.853 148.113 594.541 153.23 597.623C158.348 600.705 181.437 609.865 186.997 601.2Z" fill="#2F2E41"/>
<path d="M109.62 540.449C109.62 540.449 106.62 561.449 108.62 573.449C110.62 585.449 97.62 585.449 97.62 585.449L67.62 564.449C67.62 564.449 84.62 537.449 84.62 531.449L109.62 540.449Z" fill="#FFB9B9"/>
<path d="M184.62 314.449C184.62 314.449 176.62 411.449 160.62 447.449C144.62 483.449 119.62 553.449 119.62 553.449L77.62 538.449C77.62 538.449 97.62 447.449 115.62 434.449L127.62 289.449L184.62 314.449Z" fill="#2F2E41"/>
<path d="M169.62 316.449L155.62 369.449L185.62 567.449L147.62 576.449L99.62 353.449C99.62 353.449 84.62 324.449 93.62 296.449C102.62 268.449 169.62 316.449 169.62 316.449Z" fill="#2F2E41"/>
<path d="M100.62 575.449C100.62 575.449 112.62 565.449 112.62 572.449C112.62 579.449 120.62 592.449 120.62 592.449C120.62 592.449 148.62 614.449 120.62 611.449C92.62 608.449 82.62 592.449 82.62 592.449C82.62 592.449 60.62 581.449 60.62 575.449C60.62 569.449 69.5224 551.174 72.5712 556.311C75.62 561.449 91.62 580.449 100.62 575.449Z" fill="#2F2E41"/>
<path d="M130.62 79.4488C147.189 79.4488 160.62 66.0174 160.62 49.4488C160.62 32.8803 147.189 19.4488 130.62 19.4488C114.052 19.4488 100.62 32.8803 100.62 49.4488C100.62 66.0174 114.052 79.4488 130.62 79.4488Z" fill="#FFB9B9"/>
<path d="M110.62 79.4488L142.62 104.449L148.62 90.4488L155.62 102.449C155.62 102.449 190.62 121.449 190.62 129.449C190.62 137.449 191.62 314.449 191.62 314.449C191.62 314.449 160.62 344.449 130.62 302.449C100.62 260.449 90.62 323.449 90.62 323.449L82.62 200.449L70.62 120.449C70.62 120.449 72.62 116.449 78.62 112.449C84.62 108.449 105.62 92.4488 105.62 92.4488L110.62 79.4488Z" fill="#3AAFA9"/>
<path d="M178.62 123.449L191.62 128.449L203.62 196.449L176.62 202.449L178.62 123.449Z" fill="#3AAFA9"/>
<path d="M50.62 190.449L41.62 236.449L102.62 298.449C102.62 298.449 117.62 328.449 129.62 315.449C141.62 302.449 108.62 285.449 108.62 285.449L70.62 223.449L79.62 201.449L50.62 190.449Z" fill="#FFB9B9"/>
<path d="M95.8126 29.9893C95.8126 29.9893 90.2546 17.7617 104.705 12.2037C104.705 12.2037 116.933 -7.80501 141.388 5.53416C141.388 5.53416 158.062 12.2037 158.062 29.9893C158.062 47.7749 163.62 51.1096 163.62 51.1096C163.62 51.1096 155.343 42.6184 153.12 35.9488C150.897 29.2792 133.607 27.7661 126.937 34.4357C120.268 41.1053 103.594 39.9937 103.594 39.9937L104.705 64.4488C104.705 64.4488 99.1475 49.9981 96.9243 49.9981C94.7011 49.9981 92.4778 29.9893 95.8126 29.9893Z" fill="#2F2E41"/>
<path d="M81.62 120.449H70.62L44.62 196.449L80.62 207.449L100.62 157.449L81.62 120.449Z" fill="#3AAFA9"/>
<path opacity="0.3" d="M128.742 528.406L116.12 434.949L134.15 513.869L128.742 528.406Z" fill="black"/>
</svg>
